<?xml version="1.0" encoding="UTF-8"?>
<svg id="Layer_2" data-name="Layer 2" xmlns="http://www.w3.org/2000/svg" viewBox="0 0 65.48 70.52">
  <defs>
    <style>
      .cls-1 {
        fill: #fff;
      }

      .cls-2 {
        fill: none;
        stroke: #fff;
        stroke-miterlimit: 10;
        stroke-width: 2px;
      }
    </style>
  </defs>
  <g id="Layer_2-2" data-name="Layer 2">
    <circle class="cls-2" cx="32.74" cy="32.74" r="31.74"/>
    <path class="cls-2" d="M28,59.49c-12.99,0-23.52-11.6-23.52-25.9,0-6.12,1.97-13.5,7.48-18.95"/>
    <path class="cls-2" d="M37.79,59.49c12.99,0,23.52-11.6,23.52-25.9,0-6.12-1.97-13.5-7.48-18.95"/>
    <path class="cls-1" d="M21.81,63.35s10.58,1.32,11.15,7.18v-6.87l-11.15-.31Z"/>
    <path class="cls-1" d="M44.13,63.35s-10.62,1.32-11.18,7.18v-6.87s11.18-.31,11.18-.31Z"/>
    <path class="cls-1" d="M43.92,63.37s-10.39-.78-10.95-6.64v6.87l10.95-.23Z"/>
    <path class="cls-1" d="M21.86,63.45s10.54-.86,11.1-6.71v6.87s-11.1-.16-11.1-.16Z"/>
    <path class="cls-1" d="M44.68,2.71s7.38,7.21,3.93,11.97l4.54-5.16-8.47-6.82Z"/>
    <path class="cls-1" d="M61.42,16.97s-8.52-6.31-12.81-2.28l4.54-5.16,8.27,7.44Z"/>
    <path class="cls-1" d="M61.31,16.87s-7.02-7.76-3.57-12.52l-4.54,5.16,8.11,7.36Z"/>
    <path class="cls-1" d="M44.68,2.48s8.77,5.88,13.06,1.86l-4.54,5.16-8.52-7.02Z"/>
    <path class="cls-1" d="M21.23,2.51s-7.38,7.21-3.93,11.97l-4.54-5.16"/>
    <path class="cls-1" d="M4.48,16.77s8.52-6.31,12.81-2.28l-4.54-5.16"/>
    <path class="cls-1" d="M4.6,16.67s7.02-7.76,3.57-12.52l4.54,5.16"/>
    <path class="cls-1" d="M21.23,2.29s-8.77,5.88-13.06,1.86l4.54,5.16"/>
    <polygon class="cls-1" points="19.9 8.87 18.48 8.87 24.03 5.79 19.94 10.19 19.9 8.87"/>
    <polygon class="cls-1" points="46.32 9.38 47.74 9.38 42.19 6.3 46.29 10.7 46.32 9.38"/>
  </g>
</svg>