<?xml version="1.0" encoding="UTF-8"?>
<svg id="Layer_2" xmlns="http://www.w3.org/2000/svg" viewBox="0 0 108.9 109.87">
  <defs>
    <style>
      .cls-1 {
        fill: #fff;
      }
    </style>
  </defs>
  <g id="Layer_2-2" data-name="Layer_2">
    <g>
      <path class="cls-1" d="M15.16,69.03c-.4,0-.79.04-1.17.1,2.63.46,4.62,2.7,4.62,5.39,0,3.03-2.52,5.49-5.63,5.49-2.31,0-4.29-1.36-5.16-3.31.26,3.73,3.44,6.68,7.33,6.68s7.35-3.21,7.35-7.18-3.29-7.18-7.35-7.18Z"/>
      <path class="cls-1" d="M46,83.15s-20.71-5.85-20-26.5l.26-56.65h-11.35s7.03,1.87,7.23,9.03c.19,7.16,0,65.29,0,65.29l-8.71,9.06-13.42-.24v.24s21.31,2.1,26.46,26.48v-14.32l8.57-8.65,66.19.13s5.87.26,7.68,6v-10l-62.9.11ZM21.36,90.04h-2.1v-2.1h2.1v2.1ZM23.15,82.83l-1.91,1.02-2.83.1,4.81-4.84-.07,3.73ZM24.9,90.52l-.05-3.15,2.13-2.03,2.78,1.89-4.86,3.29ZM25.59,83.39v-12.34l12.27,12.34h-12.27Z"/>
      <polygon class="cls-1" points="15.31 96.97 8.69 100.97 12.34 93.98 15.31 93.98 15.31 96.97"/>
      <polygon class="cls-1" points="11.78 73.23 8.36 73.23 7.23 68.77 11.76 69.86 11.78 73.23"/>
      <polygon class="cls-1" points="17.24 78.29 11.31 73.23 11.78 72.75 17.53 77.77 17.24 78.29"/>
      <path class="cls-1" d="M33.71,101.31c.4,0,.79-.04,1.17-.1-2.63-.46-4.62-2.7-4.62-5.39,0-3.03,2.52-5.49,5.63-5.49,2.31,0,4.29,1.36,5.16,3.31-.26-3.73-3.44-6.68-7.33-6.68s-7.35,3.21-7.35,7.18,3.29,7.18,7.35,7.18Z"/>
      <polygon class="cls-1" points="36.84 96.86 40.26 96.86 41.4 101.31 36.86 100.23 36.84 96.86"/>
      <polygon class="cls-1" points="31.97 91.72 37.54 97.18 37.04 97.63 31.65 92.22 31.97 91.72"/>
      <polygon class="cls-1" points="49.87 90.71 56 86.55 43.74 86.55 49.87 90.71"/>
      <polygon class="cls-1" points="18.59 58.27 22.75 64.4 22.75 52.14 18.59 58.27"/>
    </g>
  </g>
</svg>