<?xml version="1.0" encoding="UTF-8"?>
<svg id="Layer_2" data-name="Layer 2" xmlns="http://www.w3.org/2000/svg" viewBox="0 0 178.57 14.44">
  <defs>
    <style>
      .cls-1 {
        fill: #fff;
      }

      .cls-2 {
        fill: none;
        stroke: #fff;
        stroke-miterlimit: 10;
        stroke-width: 2px;
      }
    </style>
  </defs>
  <g id="Layer_2-2" data-name="Layer 2">
    <g>
      <line class="cls-2" x1=".06" y1="1" x2="178.51" y2="1"/>
      <path class="cls-1" d="M81.49,1.73s7.57.26,7.94,2.67l.05-2.83-7.99.15Z"/>
      <path class="cls-1" d="M97.66,1.67s-7.77.33-8.23,2.73l.05-2.83,8.18.09Z"/>
      <polygon class="cls-1" points="91.92 7.6 89.42 4.79 87.04 7.6 89.47 14.44 91.92 7.6"/>
      <path class="cls-1" d="M9.83,1.61S.55,2.56,0,9.57L.06,1.34l9.76.27Z"/>
      <path class="cls-1" d="M168.74,1.95s9.28.95,9.83,7.96l-.06-8.23-9.76.27Z"/>
      <path class="cls-1" d="M5.2,1.04c-.57.1-1.33.26-2.11.51-1.46.47-2.59,1.11-2.3,1.22.36.13,2.19-.79,5.72-1.02,1.09-.07,2.26-.07,4.12-.07,1.24,0,2.06,0,2.96.04,2,.07,3.97.39,5.33.66l68.13.06s1.99.49,2.37,1.13l.05-2.58-84.28.04Z"/>
      <path class="cls-1" d="M173.65,1.04c.57.1,1.33.26,2.11.51,1.46.47,2.59,1.11,2.3,1.22-.36.13-2.19-.79-5.72-1.02-1.09-.07-2.26-.07-4.12-.07-1.24,0-2.06,0-2.96.04-2,.07-3.97.39-5.33.66l-68.13.06s-1.99.49-2.37,1.13l-.05-2.58,84.28.04Z"/>
      <polygon class="cls-1" points="19.97 4.31 18.47 3.28 16.96 4.3 18.48 6.29 19.97 4.31"/>
      <polygon class="cls-1" points="161.96 4.32 160.46 3.29 158.96 4.3 160.47 6.3 161.96 4.32"/>
    </g>
  </g>
</svg>