<?xml version="1.0" encoding="UTF-8"?>
<svg id="Layer_2" data-name="Layer 2" xmlns="http://www.w3.org/2000/svg" viewBox="0 0 221.23 16.22">
  <defs>
    <style>
      .cls-1 {
        fill: #fff;
      }

      .cls-2 {
        fill: none;
        stroke: #fff;
        stroke-miterlimit: 10;
        stroke-width: 1.18px;
      }
    </style>
  </defs>
  <g id="Layer_2-2" data-name="Layer 2">
    <g id="uuid-e9b9f31c-f31a-467d-8cb2-128d99cd18f4" data-name="Layer 2-2">
      <line class="cls-2" y1="8.32" x2="221.23" y2="8.32"/>
      <line class="cls-2" x1="31.33" y1="11.86" x2="103.51" y2="11.86"/>
      <line class="cls-2" x1="117.67" y1="11.86" x2="189.86" y2="11.86"/>
      <path class="cls-1" d="M97.76,8.58s12.12.75,12.71,7.65l.08-8.08-12.79.44Z"/>
      <path class="cls-1" d="M123.63,8.41s-12.44.93-13.17,7.81l.08-8.08,13.08.27Z"/>
      <path class="cls-1" d="M123.45,8.41s-12.21-1.52-12.8-8.41l-.08,8.08,12.88.33Z"/>
      <path class="cls-1" d="M97.59,8.38s12.33-1.49,13.06-8.38l-.08,8.08-12.98.29Z"/>
      <path class="cls-1" d="M15.47,8.68s8.91.55,9.34,5.62l.06-5.94s-9.4.32-9.4.32Z"/>
      <path class="cls-1" d="M34.48,8.53s-9.14.68-9.68,5.74l.06-5.94,9.62.2Z"/>
      <path class="cls-1" d="M34.36,8.53s-8.98-1.12-9.41-6.18l-.06,5.94,9.47.24Z"/>
      <path class="cls-1" d="M15.34,8.54s9.07-1.11,9.6-6.15l-.06,5.94s-9.54.21-9.54.21Z"/>
      <path class="cls-1" d="M187.35,8.59s8.91.55,9.34,5.62l.06-5.94s-9.4.32-9.4.32Z"/>
      <path class="cls-1" d="M206.38,8.47s-9.14.68-9.68,5.74l.06-5.94,9.62.2Z"/>
      <path class="cls-1" d="M206.25,8.47s-8.98-1.12-9.41-6.18l-.06,5.94,9.47.24Z"/>
      <path class="cls-1" d="M187.24,8.45s9.07-1.11,9.6-6.15l-.06,5.94-9.54.21Z"/>
      <polygon class="cls-1" points="11.53 11.24 18.9 11.24 16.48 12.44 15.34 13.64 14.12 12.44 11.53 11.24"/>
      <polygon class="cls-1" points="202.57 11.24 209.93 11.24 207.52 12.44 206.38 13.62 205.15 12.44 202.57 11.24"/>
      <polygon class="cls-1" points="111.89 8.14 110.47 16.22 109.17 8.32 110.65 0 111.89 8.14"/>
      <polygon class="cls-1" points="197.6 8.27 196.69 14.21 195.87 8.4 196.84 2.28 197.6 8.27"/>
      <polygon class="cls-1" points="25.71 8.34 24.8 14.31 23.99 8.46 24.94 2.35 25.71 8.34"/>
    </g>
  </g>
</svg>