<?xml version="1.0" encoding="UTF-8"?>
<svg xmlns="http://www.w3.org/2000/svg" xmlns:xlink="http://www.w3.org/1999/xlink" width="22px" height="32px" viewBox="0 0 22 31" version="1.1">
<g id="surface1">
<path style="fill-rule:nonzero;fill:rgb(100%,100%,100%);fill-opacity:1;stroke-width:1;stroke-linecap:butt;stroke-linejoin:miter;stroke:rgb(100%,100%,100%);stroke-opacity:1;stroke-miterlimit:10;" d="M 25.844457 2.975807 L 23.118888 18.980066 L 28.560817 18.980066 Z M 25.844457 2.975807 " transform="matrix(0.424223,0,0,0.420054,0.063519,0)"/>
<path style="fill-rule:nonzero;fill:rgb(100%,100%,100%);fill-opacity:1;stroke-width:1;stroke-linecap:butt;stroke-linejoin:miter;stroke:rgb(100%,100%,100%);stroke-opacity:1;stroke-miterlimit:10;" d="M 25.816833 69.819862 L 23.118888 48.440551 L 28.523985 48.440551 Z M 25.816833 69.819862 " transform="matrix(0.424223,0,0,0.420054,0.063519,0)"/>
<path style="fill-rule:nonzero;fill:rgb(100%,100%,100%);fill-opacity:1;stroke-width:1;stroke-linecap:butt;stroke-linejoin:miter;stroke:rgb(100%,100%,100%);stroke-opacity:1;stroke-miterlimit:10;" d="M 9.610751 12.823866 L 12.594143 22.011669 L 16.083976 20.003 Z M 9.610751 12.823866 " transform="matrix(0.424223,0,0,0.420054,0.063519,0)"/>
<path style="fill-rule:nonzero;fill:rgb(100%,100%,100%);fill-opacity:1;stroke-width:1;stroke-linecap:butt;stroke-linejoin:miter;stroke:rgb(100%,100%,100%);stroke-opacity:1;stroke-miterlimit:10;" d="M 42.022914 13.251639 L 39.039522 22.448741 L 35.540482 20.430772 Z M 42.022914 13.251639 " transform="matrix(0.424223,0,0,0.420054,0.063519,0)"/>
<path style="fill-rule:nonzero;fill:rgb(100%,100%,100%);fill-opacity:1;stroke-width:1;stroke-linecap:butt;stroke-linejoin:miter;stroke:rgb(100%,100%,100%);stroke-opacity:1;stroke-miterlimit:10;" d="M 10.964327 55.182613 L 13.938511 45.976212 L 17.428344 48.00348 Z M 10.964327 55.182613 " transform="matrix(0.424223,0,0,0.420054,0.063519,0)"/>
<path style="fill-rule:nonzero;fill:rgb(100%,100%,100%);fill-opacity:1;stroke-width:1;stroke-linecap:butt;stroke-linejoin:miter;stroke:rgb(100%,100%,100%);stroke-opacity:1;stroke-miterlimit:10;" d="M 40.56805 54.940829 L 38.31209 45.548439 L 34.665722 47.287426 Z M 40.56805 54.940829 " transform="matrix(0.424223,0,0,0.420054,0.063519,0)"/>
<path style="fill-rule:nonzero;fill:rgb(100%,100%,100%);fill-opacity:1;stroke-width:1;stroke-linecap:butt;stroke-linejoin:miter;stroke:rgb(100%,100%,100%);stroke-opacity:1;stroke-miterlimit:10;" d="M 1.69187 48.124372 L 6.949639 40.006 L 9.804119 42.860914 Z M 1.69187 48.124372 " transform="matrix(0.424223,0,0,0.420054,0.063519,0)"/>
<path style="fill-rule:nonzero;fill:rgb(100%,100%,100%);fill-opacity:1;stroke-width:1;stroke-linecap:butt;stroke-linejoin:miter;stroke:rgb(100%,100%,100%);stroke-opacity:1;stroke-miterlimit:10;" d="M 49.951003 48.328959 L 45.098387 39.968802 L 42.105786 42.684226 Z M 49.951003 48.328959 " transform="matrix(0.424223,0,0,0.420054,0.063519,0)"/>
<path style="fill-rule:nonzero;fill:rgb(100%,100%,100%);fill-opacity:1;stroke-width:1;stroke-linecap:butt;stroke-linejoin:miter;stroke:rgb(100%,100%,100%);stroke-opacity:1;stroke-miterlimit:10;" d="M 45.015515 33.152345 C 41.875586 39.838611 32.796497 45.260158 25.227521 44.999775 C 17.07844 44.720793 8.570247 39.661922 5.863095 32.891962 L 5.863095 33.254638 C 8.671535 26.521876 17.253392 21.583897 25.411681 21.416508 C 32.980657 21.267718 41.976874 26.819457 45.015515 33.561519 " transform="matrix(0.424223,0,0,0.420054,0.063519,0)"/>
<path style="fill-rule:nonzero;fill:rgb(100%,100%,100%);fill-opacity:1;stroke-width:1;stroke-linecap:butt;stroke-linejoin:miter;stroke:rgb(100%,100%,100%);stroke-opacity:1;stroke-miterlimit:10;" d="M 6.148543 33.152345 C 9.288471 39.838611 18.36756 45.260158 25.936537 44.999775 C 34.085618 44.720793 42.603019 39.661922 45.310171 32.891962 L 45.310171 33.254638 C 42.50173 26.521876 33.919874 21.583897 25.761585 21.416508 C 18.192608 21.267718 9.187183 26.819457 6.148543 33.561519 " transform="matrix(0.424223,0,0,0.420054,0.063519,0)"/>
<path style="fill-rule:nonzero;fill:rgb(67.058825%,48.235294%,79.215688%);fill-opacity:1;stroke-width:1;stroke-linecap:butt;stroke-linejoin:miter;stroke:rgb(67.058825%,48.235294%,79.215688%);stroke-opacity:1;stroke-miterlimit:10;" d="M 35.006418 32.891962 C 35.006418 27.85169 30.927273 23.769255 25.890497 23.769255 C 20.85372 23.769255 16.774576 27.85169 16.774576 32.891962 C 16.774576 37.922935 20.85372 42.00537 25.890497 42.00537 C 30.927273 42.00537 35.006418 37.922935 35.006418 32.891962 Z M 35.006418 32.891962 " transform="matrix(0.424223,0,0,0.420054,0.063519,0)"/>
<path style=" stroke:none;fill-rule:nonzero;fill:rgb(24.705882%,0%,23.921569%);fill-opacity:1;" d="M 10.996094 11.203125 C 10.125 12.480469 9.785156 13.59375 9.933594 13.992188 C 10.082031 14.398438 10.386719 14.601562 10.386719 14.601562 C 10.453125 14.648438 10.496094 14.675781 10.5625 14.683594 C 10.859375 14.730469 11.210938 14.328125 11.328125 13.949219 C 11.429688 13.617188 11.335938 13.339844 11.261719 13.070312 C 11.148438 12.644531 11.027344 12.023438 11.003906 11.203125 Z M 10.996094 11.203125 "/>
<path style=" stroke:none;fill-rule:nonzero;fill:rgb(24.705882%,0%,23.921569%);fill-opacity:1;" d="M 11 11.238281 C 11.871094 12.511719 12.210938 13.625 12.0625 14.027344 C 11.910156 14.433594 11.609375 14.632812 11.609375 14.632812 C 11.542969 14.679688 11.5 14.710938 11.433594 14.71875 C 11.136719 14.765625 10.785156 14.363281 10.667969 13.984375 C 10.566406 13.652344 10.660156 13.375 10.734375 13.105469 C 10.847656 12.675781 10.96875 12.054688 10.992188 11.238281 Z M 11 11.238281 "/>
<path style=" stroke:none;fill-rule:nonzero;fill:rgb(24.705882%,0%,23.921569%);fill-opacity:1;" d="M 11.003906 16.472656 C 10.132812 15.199219 9.796875 14.085938 9.945312 13.683594 C 10.09375 13.277344 10.394531 13.078125 10.394531 13.078125 C 10.460938 13.03125 10.503906 13 10.570312 12.992188 C 10.867188 12.945312 11.21875 13.347656 11.335938 13.726562 C 11.4375 14.058594 11.34375 14.335938 11.273438 14.605469 C 11.15625 15.035156 11.035156 15.65625 11.011719 16.472656 Z M 11.003906 16.472656 "/>
<path style=" stroke:none;fill-rule:nonzero;fill:rgb(24.705882%,0%,23.921569%);fill-opacity:1;" d="M 11.007812 16.4375 C 11.878906 15.160156 12.21875 14.046875 12.070312 13.648438 C 11.921875 13.238281 11.621094 13.039062 11.621094 13.039062 C 11.550781 12.992188 11.507812 12.960938 11.441406 12.953125 C 11.144531 12.910156 10.792969 13.3125 10.675781 13.691406 C 10.574219 14.019531 10.667969 14.296875 10.742188 14.566406 C 10.855469 14.996094 10.980469 15.617188 11 16.4375 Z M 11.007812 16.4375 "/>
</g>
</svg>
