<?xml version="1.0" encoding="UTF-8"?>
<svg id="Layer_2" data-name="Layer 2" xmlns="http://www.w3.org/2000/svg" viewBox="0 0 133 132.7">
  <defs>
    <style>
      .cls-1 {
        fill: #fff;
      }

      .cls-2 {
        fill: none;
        stroke: #fff;
        stroke-miterlimit: 10;
      }
    </style>
  </defs>
  <g id="Layer_2-2" data-name="Layer 2">
    <g>
      <line class="cls-2" x1="66.64" y1="127.54" x2="66.59" y2="113.26"/>
      <line class="cls-2" x1="66.64" y1="127.54" x2="66.59" y2="113.26"/>
      <circle class="cls-2" cx="66.63" cy="66.27" r="12.45"/>
      <circle class="cls-2" cx="87.37" cy="100.23" r="7.65"/>
      <circle class="cls-2" cx="45.73" cy="100.23" r="7.65"/>
      <circle class="cls-2" cx="87.37" cy="32.85" r="7.65"/>
      <circle class="cls-2" cx="45.96" cy="32.49" r="7.65"/>
      <path class="cls-1" d="M61.6,66.29s4.7.43,4.93,4.38l.03-4.63-4.96.25Z"/>
      <path class="cls-1" d="M71.61,66.31s-4.8.43-5.09,4.37l.03-4.63,5.06.26Z"/>
      <path class="cls-1" d="M71.61,66.31s-4.74-.87-4.97-4.81l-.03,4.63,5,.19Z"/>
      <path class="cls-1" d="M61.58,66.29s4.78-.86,5.07-4.8l-.03,4.63-5.03.17Z"/>
      <polygon class="cls-2" points="66.64 31.88 36.63 83.87 96.66 83.87 66.64 31.88"/>
      <polygon class="cls-2" points="66.64 100.7 96.66 48.71 36.63 48.71 66.64 100.7"/>
      <path class="cls-2" d="M46.03,65.56c-1.14.13-2.02.13-2.57.12-11.84-.28-29.07-13.89-29.07-31.34"/>
      <path class="cls-2" d="M86.65,65.56c1.14.13,2.02.13,2.57.12,11.84-.28,29.13-14.7,29.13-32.16"/>
      <path class="cls-2" d="M46.33,66.39c-1.14-.13-2.02-.13-2.57-.12-11.84.28-29.1,14.95-29.1,32.41"/>
      <path class="cls-2" d="M86.96,66.39c1.14-.13,2.02-.13,2.57-.12,11.84.28,30.22,13.05,30.22,30.51"/>
      <circle class="cls-2" cx="66.63" cy="66.31" r="61.23" transform="translate(-27.37 66.53) rotate(-45)"/>
      <path class="cls-2" d="M26.18,42.56s7.81.74,8.03,3.39-3.71,3-8.03-3.39Z"/>
      <path class="cls-2" d="M107.11,42.56s-7.81.74-8.03,3.39,3.71,3,8.03-3.39Z"/>
      <path class="cls-2" d="M26.09,89.78s7.81-.74,8.03-3.39-3.71-3-8.03,3.39Z"/>
      <path class="cls-2" d="M107.02,89.78s-7.81-.74-8.03-3.39,3.71-3,8.03,3.39Z"/>
      <circle class="cls-2" cx="66.64" cy="66.04" r="51.98"/>
      <path class="cls-2" d="M66.58,113.27s3.26-7.13,1.08-8.65c-2.18-1.52-4.45,1.71-1.08,8.65Z"/>
      <path class="cls-2" d="M66.66,19.39s3.15,7.18.95,8.66-4.43-1.78-.95-8.66Z"/>
      <line class="cls-2" x1="66.64" y1="127.54" x2="66.59" y2="113.26"/>
      <line class="cls-2" x1="66.67" y1="19.35" x2="66.62" y2="5.07"/>
      <path class="cls-1" d="M114.44,28.36s-3.82-5.81-.03-10.08l-4.75,4.69,4.78,5.39Z"/>
      <path class="cls-1" d="M104.48,17.91s5.63,4.1,9.92.37l-4.75,4.69-5.17-5.06Z"/>
      <path class="cls-1" d="M104.32,114.45s5.82-3.81,10.08,0l-4.68-4.76-5.4,4.76Z"/>
      <path class="cls-1" d="M114.8,104.53s-4.12,5.61-.4,9.92l-4.68-4.76,5.08-5.16Z"/>
      <path class="cls-1" d="M18.66,28.22s3.82-5.81.03-10.08l4.75,4.69-4.78,5.39Z"/>
      <path class="cls-1" d="M28.61,17.77s-5.63,4.1-9.92.37l4.75,4.69,5.17-5.06Z"/>
      <path class="cls-1" d="M28.77,114.31s-5.82-3.81-10.08,0l4.68-4.76,5.4,4.76Z"/>
      <path class="cls-1" d="M18.29,104.39s4.12,5.61.4,9.92l4.68-4.76-5.08-5.16Z"/>
      <path class="cls-1" d="M42.77,28.82s2.91-.54,3.35-3.98l-.09,4.02-3.26-.05Z"/>
      <path class="cls-1" d="M49.75,28.81s-3.33-.54-3.63-3.97l-.09,4.02,3.71-.06Z"/>
      <path class="cls-1" d="M42.77,35.8s-.78-2.1-5.01-2.54l5.01.09v2.45Z"/>
      <path class="cls-1" d="M42.77,28.82s-.79,4.15-5.01,4.44l5.01.09v-4.53Z"/>
      <path class="cls-1" d="M49.76,35.8s-3.35.71-3.79,4.95l.09-4.97,3.71.02Z"/>
      <path class="cls-1" d="M42.77,35.8s2.9.72,3.2,4.94l.09-4.97-3.28.02Z"/>
      <path class="cls-1" d="M49.75,28.81s.5,3.66,3.98,4.1l-4.08-.09.1-4.01Z"/>
      <path class="cls-1" d="M49.76,35.8s.5-2.6,3.97-2.89l-4.08-.09.11,2.98Z"/>
      <path class="cls-1" d="M84.27,28.85s2.91-.54,3.35-3.98l-.09,4.02-3.26-.05Z"/>
      <path class="cls-1" d="M91.25,28.84s-3.33-.54-3.63-3.97l-.09,4.02,3.71-.06Z"/>
      <path class="cls-1" d="M84.27,35.83s-.78-2.1-5.01-2.54l5.01.09v2.45Z"/>
      <path class="cls-1" d="M84.27,28.85s-.79,4.15-5.01,4.44l5.01.09v-4.53Z"/>
      <path class="cls-1" d="M91.26,35.83s-3.35.71-3.79,4.95l.09-4.97,3.71.02Z"/>
      <path class="cls-1" d="M84.27,35.83s2.9.72,3.2,4.94l.09-4.97-3.28.02Z"/>
      <path class="cls-1" d="M91.25,28.84s.5,3.66,3.98,4.1l-4.08-.09.1-4.01Z"/>
      <path class="cls-1" d="M91.26,35.83s.5-2.6,3.97-2.89l-4.08-.09.11,2.98Z"/>
      <path class="cls-1" d="M84.4,96.26s2.91-.54,3.35-3.98l-.09,4.02-3.26-.05Z"/>
      <path class="cls-1" d="M91.37,96.25s-3.33-.54-3.63-3.97l-.09,4.02,3.71-.06Z"/>
      <path class="cls-1" d="M84.4,103.24s-.78-2.1-5.01-2.54l5.01.09v2.45Z"/>
      <path class="cls-1" d="M84.4,96.26s-.79,4.15-5.01,4.44l5.01.09v-4.53Z"/>
      <path class="cls-1" d="M91.39,103.24s-3.35.71-3.79,4.95l.09-4.97,3.71.02Z"/>
      <path class="cls-1" d="M84.4,103.24s2.9.72,3.2,4.94l.09-4.97-3.28.02Z"/>
      <path class="cls-1" d="M91.37,96.25s.5,3.66,3.98,4.1l-4.08-.09.1-4.01Z"/>
      <path class="cls-1" d="M91.39,103.24s.5-2.6,3.97-2.89l-4.08-.09.11,2.98Z"/>
      <path class="cls-1" d="M42.56,96.42s2.91-.54,3.35-3.98l-.09,4.02-3.26-.05Z"/>
      <path class="cls-1" d="M49.54,96.41s-3.33-.54-3.63-3.97l-.09,4.02,3.71-.06Z"/>
      <path class="cls-1" d="M42.56,103.4s-.78-2.1-5.01-2.54l5.01.09v2.45Z"/>
      <path class="cls-1" d="M42.56,96.42s-.79,4.15-5.01,4.44l5.01.09v-4.53Z"/>
      <path class="cls-1" d="M49.55,103.4s-3.35.71-3.79,4.95l.09-4.97,3.71.02Z"/>
      <path class="cls-1" d="M42.56,103.4s2.9.72,3.2,4.94l.09-4.97-3.28.02Z"/>
      <path class="cls-1" d="M49.54,96.41s.5,3.66,3.98,4.1l-4.08-.09.1-4.01Z"/>
      <path class="cls-1" d="M49.55,103.4s.5-2.6,3.97-2.89l-4.08-.09.11,2.98Z"/>
      <path class="cls-1" d="M.58,66.42s10.09-8.2,11.64-5.56c0,.14,0,.37-.07.63-.22.9-.93,1.27-1.96,2.37-.21.22-.51.56-.85.99-.09.2-.17.47-.05.68.02.04.07.1.14.17.04.04.12.1.25.15.27.11.59.11.64.11.3,0,.59.05.89.05.47,0,.53.03,1.42.08,4.2.24,8.2.24,8.2.24h0c-9.5.48-11.6,1.2-11.64,1.79-.02.28.49.73,1.51,1.64.57.51,1.07.88,1.43,1.14.19.14.48.39.44.66-.07.51-1.29.68-1.43.7-1.57.21-2.94-.77-3.46-1.14-1.88-1.33-4.22-2.85-7.11-4.69Z"/>
      <path class="cls-1" d="M132.51,66.42s-10.09-8.2-11.64-5.56c0,.14,0,.37.07.63.22.9.93,1.27,1.96,2.37.21.22.51.56.85.99.09.2.17.47.05.68-.02.04-.07.1-.14.17-.04.04-.12.1-.25.15-.27.11-.59.11-.64.11-.3,0-.59.05-.89.05-.47,0-.53.03-1.42.08-4.2.24-8.2.24-8.2.24h0c9.5.48,11.6,1.2,11.64,1.79.02.28-.49.73-1.51,1.64-.57.51-1.07.88-1.43,1.14-.19.14-.48.39-.44.66.07.51,1.29.68,1.43.7,1.57.21,2.94-.77,3.46-1.14,1.88-1.33,4.22-2.85,7.11-4.69Z"/>
      <path class="cls-1" d="M66.53,132.7s8.2-10.09,5.56-11.64c-.14,0-.37,0-.63.07-.9.22-1.27.93-2.37,1.96-.22.21-.56.51-.99.85-.2.09-.47.17-.68.05-.04-.02-.1-.07-.17-.14-.04-.04-.1-.12-.15-.25-.11-.27-.11-.59-.11-.64,0-.3-.05-.59-.05-.89,0-.47-.03-.53-.08-1.42-.24-4.2-.24-8.2-.24-8.2h0c-.48,9.5-1.2,11.6-1.79,11.64-.28.02-.73-.49-1.64-1.51-.51-.57-.88-1.07-1.14-1.43-.14-.19-.39-.48-.66-.44-.51.07-.68,1.29-.7,1.43-.21,1.57.77,2.94,1.14,3.46,1.33,1.88,2.85,4.22,4.69,7.11Z"/>
      <path class="cls-1" d="M66.53.77s8.2,9.78,5.56,11.28c-.14,0-.37,0-.63-.07-.9-.22-1.27-.9-2.37-1.91-.22-.2-.56-.49-.99-.82-.2-.09-.47-.16-.68-.05-.04.02-.1.07-.17.14-.04.04-.1.12-.15.24-.11.26-.11.57-.11.62,0,.29-.05.58-.05.87,0,.46-.03.51-.08,1.38-.24,4.07-.24,7.95-.24,7.95h0c-.48-9.21-1.2-11.25-1.79-11.28-.28-.02-.73.48-1.64,1.47-.51.55-.88,1.04-1.14,1.39-.14.19-.39.46-.66.43-.51-.06-.68-1.25-.7-1.38-.21-1.52.77-2.85,1.14-3.35,1.33-1.83,2.85-4.09,4.69-6.9Z"/>
      <path class="cls-1" d="M10.25,66.22c.48.29,1.81,1.2,2.34,2.91.42,1.36.43,3.53-.95,4.61-.67.52-1.42.59-1.7.62-1.31.11-2.42-.53-4.06-1.84,0,0-2.5-1.99-5.88-5.73h0s7.39-10.03,11.01-8.76c.38.13.77.54.79.56,1.49,1.39,2.03,4.26.65,6.13-.65.87-1.54,1.3-2.2,1.5Z"/>
      <path class="cls-1" d="M122.75,66.81c-.48-.29-1.81-1.2-2.34-2.91-.42-1.36-.43-3.53.95-4.61.67-.52,1.42-.59,1.7-.62,1.31-.11,2.42.53,4.06,1.84,0,0,2.5,1.99,5.88,5.74h0s-7.39,10.03-11.01,8.76c-.38-.13-.77-.54-.79-.56-1.49-1.39-2.03-4.26-.65-6.13.65-.87,1.54-1.3,2.2-1.5Z"/>
      <path class="cls-1" d="M65.93,122.45c.29-.48,1.2-1.81,2.91-2.34,1.36-.42,3.53-.43,4.61.95.52.67.59,1.42.62,1.7.11,1.31-.53,2.42-1.84,4.06,0,0-1.99,2.5-5.73,5.88h0s-10.03-7.39-8.76-11.01c.13-.38.54-.77.56-.79,1.39-1.49,4.26-2.03,6.13-.65.87.65,1.3,1.54,1.5,2.2Z"/>
      <path class="cls-1" d="M66.57,10.25c-.29.48-1.2,1.81-2.91,2.34-1.36.42-3.53.43-4.61-.95-.52-.67-.59-1.42-.62-1.7-.11-1.31.53-2.42,1.84-4.06,0,0,1.99-2.5,5.74-5.88h0s10.03,7.39,8.76,11.01c-.13.38-.54.77-.56.79-1.39,1.49-4.26,2.03-6.13.65-.87-.65-1.3-1.54-1.5-2.2Z"/>
    </g>
  </g>
</svg>