<?xml version="1.0" encoding="UTF-8"?>
<svg id="Layer_2" data-name="Layer 2" xmlns="http://www.w3.org/2000/svg" xmlns:xlink="http://www.w3.org/1999/xlink" viewBox="0 0 195.99 40.38">
  <defs>
    <style>
      .cls-1 {
        stroke: url(#linear-gradient);
      }

      .cls-1, .cls-2 {
        fill: none;
        stroke-miterlimit: 10;
      }

      .cls-3 {
        fill: #fff;
      }

      .cls-2 {
        stroke: #fff;
      }
    </style>
    <linearGradient id="linear-gradient" x1="0" y1="20.52" x2="195.99" y2="20.52" gradientUnits="userSpaceOnUse">
      <stop offset="0" stop-color="#fff" stop-opacity="0"/>
      <stop offset=".14" stop-color="#fff"/>
    </linearGradient>
  </defs>
  <g id="Layer_2-2" data-name="Layer 2">
    <g>
      <path class="cls-1" d="M0,5.1h186.97s0,8.13,8.52,7.74v14.58s-9.16-.65-8,7.74L0,35.94"/>
      <polygon class="cls-3" points="159.29 5.1 144.68 10.1 131.49 5.1 144.68 0 159.29 5.1"/>
      <polygon class="cls-3" points="159.18 35.38 144.57 40.38 131.37 35.38 144.57 30.29 159.18 35.38"/>
      <line class="cls-2" x1="158.02" y1="31.47" x2="171.66" y2="31.47"/>
      <line class="cls-2" x1="158.43" y1="8.46" x2="172.07" y2="8.46"/>
      <polygon class="cls-3" points="165.26 27.9 160.44 31.48 170.09 31.48 165.26 27.9"/>
      <polygon class="cls-3" points="165.11 12.23 169.93 8.65 160.28 8.65 165.11 12.23"/>
      <path class="cls-2" d="M174.18,8.46h8.95s2.03,4.85,7.98,8.38v6.26s-5.47,3.46-7.98,8.36h-9.31"/>
      <polygon class="cls-3" points="187.16 19.96 190.74 22.92 190.74 17.01 187.16 19.96"/>
    </g>
  </g>
</svg>