<?xml version="1.0" encoding="UTF-8"?>
<svg id="Layer_2" data-name="Layer 2" xmlns="http://www.w3.org/2000/svg" viewBox="0 0 209.51 24.03">
  <defs>
    <style>
      .cls-1 {
        fill: #fff;
      }

      .cls-1, .cls-2 {
        stroke: #fff;
        stroke-miterlimit: 10;
      }

      .cls-2 {
        fill: none;
      }
    </style>
  </defs>
  <g id="Layer_2-2" data-name="Layer 2">
    <g>
      <path class="cls-2" d="M17.21,5.34l174.87-.1s.97,5.23,6.58,6.58c0,0-6.58,1.65-6.19,6.68H17.21s-1.45-4.84-6.87-6.63c0,0,4.84-1.11,6.87-6.53Z"/>
      <path class="cls-1" d="M105.61,17.32c-1.4-.95-2.82,1.14-.61,5.53,0,0,2.01-4.58.61-5.53"/>
      <path class="cls-1" d="M105.61,6.7c-1.4.95-2.82-1.14-.61-5.53,0,0,2.01,4.58.61,5.53"/>
      <path class="cls-1" d="M202.81,12.5c-.95-1.4,1.14-2.82,5.53-.61,0,0-4.58,2.01-5.53.61"/>
      <path class="cls-1" d="M6.7,12.5c.95-1.4-1.14-2.82-5.53-.61,0,0,4.58,2.01,5.53.61"/>
    </g>
  </g>
</svg>