<?xml version="1.0" encoding="UTF-8"?>
<svg id="Layer_2" data-name="Layer 2" xmlns="http://www.w3.org/2000/svg" xmlns:xlink="http://www.w3.org/1999/xlink" viewBox="0 0 196.2 40.38">
  <defs>
    <style>
      .cls-1 {
        stroke: url(#linear-gradient);
      }

      .cls-1, .cls-2 {
        fill: none;
        stroke-miterlimit: 10;
      }

      .cls-3 {
        fill: #fff;
      }

      .cls-2 {
        stroke: #fff;
      }
    </style>
    <linearGradient id="linear-gradient" x1=".57" y1="20.96" x2="196.55" y2="20.96" gradientTransform="translate(196.42 42.19) rotate(-179.46)" gradientUnits="userSpaceOnUse">
      <stop offset="0" stop-color="#fff" stop-opacity="0"/>
      <stop offset=".14" stop-color="#fff"/>
    </linearGradient>
  </defs>
  <g id="Layer_2-2" data-name="Layer 2">
    <g>
      <path class="cls-1" d="M195.91,36.64l-186.96-1.76s.08-8.13-8.44-7.82l.14-14.58s9.15.73,8.07-7.67l187.48.99"/>
      <polygon class="cls-3" points="36.62 35.15 51.28 30.28 64.43 35.41 51.19 40.38 36.62 35.15"/>
      <polygon class="cls-3" points="37.02 4.86 51.68 0 64.83 5.12 51.59 10.1 37.02 4.86"/>
      <line class="cls-2" x1="38.15" y1="8.79" x2="24.5" y2="8.66"/>
      <line class="cls-2" x1="37.52" y1="31.79" x2="23.87" y2="31.66"/>
      <polygon class="cls-3" points="30.87 12.29 35.73 8.75 26.07 8.66 30.87 12.29"/>
      <polygon class="cls-3" points="30.88 27.96 26.02 31.49 35.67 31.58 30.88 27.96"/>
      <path class="cls-2" d="M21.77,31.64l-8.95-.08s-1.99-4.87-7.9-8.46l.06-6.26s5.5-3.41,8.06-8.28l9.31.09"/>
      <polygon class="cls-3" points="8.89 20.02 5.34 17.03 5.29 22.94 8.89 20.02"/>
    </g>
  </g>
</svg>