<?xml version="1.0" encoding="UTF-8"?>
<svg id="Layer_2" data-name="Layer 2" xmlns="http://www.w3.org/2000/svg" viewBox="0 0 91.16 77.61">
  <defs>
    <style>
      .cls-1 {
        fill: #fff;
      }
    </style>
  </defs>
  <g id="Layer_2-2" data-name="Layer 2">
    <g>
      <path class="cls-1" d="M0,38.97c2.81-.55,11.87-3.06,15.58-7.58l12.58-8.32v4.48l-12.74,8.23s-3.45,3.13,9.13,3.19H0Z"/>
      <path class="cls-1" d="M0,38.97c2.81.55,11.87,3.06,15.58,7.58l12.58,8.32v-4.48s-12.74-8.23-12.74-8.23c0,0-3.45-3.13,9.13-3.19H0Z"/>
      <polygon class="cls-1" points="59.61 31.42 65.08 31.85 57.66 26.3 59.61 31.42"/>
      <polygon class="cls-1" points="58.49 46.62 63.96 46.19 56.54 51.75 58.49 46.62"/>
      <path class="cls-1" d="M56.32,38.81h34.84s-16.74-2.23-22.55-12.39v2.32l-21.39-15.1v2.9L28.16,0v38.81h3.87l.1-30.29,32.13,23.32s9.1,6.48-7.94,6.97ZM73.02,37.56h-4.48l2.24-3.01,2.24,3.01Z"/>
      <path class="cls-1" d="M47.23,61.06v2.9l21.39-15.1v2.32c5.81-10.16,22.55-12.39,22.55-12.39h-34.84c17.03.48,7.94,6.97,7.94,6.97l-32.13,23.32-.1-30.29h-3.87v38.81l19.06-16.55ZM68.54,40.24h4.48l-2.24,3.01-2.24-3.01Z"/>
    </g>
  </g>
</svg>