<?xml version="1.0" encoding="UTF-8"?>
<svg id="Layer_2" data-name="Layer 2" xmlns="http://www.w3.org/2000/svg" viewBox="0 0 34.56 39.1">
  <defs>
    <style>
      .cls-1 {
        fill: #fff;
      }
    </style>
  </defs>
  <g id="Layer_2-2" data-name="Layer 2">
    <path class="cls-1" d="M29.39,30.58c-.03-.29-.07-.99.34-1.69.74-1.29,2.29-1.4,2.42-1.4.89-.96.82-2.44-.05-3.24-.76-.7-2-.77-2.9-.1-.79.65-1.58,1.29-2.37,1.94l-6.1-6.53,13.06-10.65.39-8.9-8.76,1.11-7.89,12L9.35.97.45,0v8.71l13.45,10.5-4.74,6.29s-.1,1.31-3.44-2.03c-.07-.04-1.39-.74-2.66,0-.14.08-1.22.74-1.27,2.01-.04.92.48,1.79,1.33,2.25.28.11,2.21.89,2.18,1.93,0,.27-.15.51-.97,1.36-.96.99-1.77,1.69-1.94,1.84-1.37,1.21-2.32,1.74-2.32,2.27,0,.87-.15,1.84,0,3.97h4.06l4.6-6.73c.36.53.97,1.3,1.94,1.98.74.53,1.45.83,1.98,1.02,1.08-.04,2.02-.73,2.33-1.73.29-.89.03-1.88-.64-2.55-.95-.61-1.9-1.21-2.85-1.82l5.76-6.1,5.47,5.13c-.08.31-.22.71-.48,1.11-.67,1.03-1.66,1.45-2.07,1.59-1.03,1.12-1.02,2.74-.16,3.64.63.65,1.65.87,2.61.58.3-.44.74-1,1.35-1.55.58-.51,1.14-.87,1.6-1.11,2.11,2.18,3.5,4.16,5.61,6.34l3.39.19v-4.06l-5.18-4.45ZM9.52,30.56h-2.37v-2.37h2.37v2.37ZM15.11,17.36L5.48,6.49l.88-.78,9.63,10.86-.88.78ZM19.06,16.76l9.63-10.86.74.66-9.63,10.87-.74-.66ZM27.19,30.56h-2.37v-2.37h2.37v2.37Z"/>
  </g>
</svg>