<?xml version="1.0" encoding="UTF-8"?>
<svg id="Layer_2" data-name="Layer 2" xmlns="http://www.w3.org/2000/svg" viewBox="0 0 41.47 37.72">
  <defs>
    <style>
      .cls-1 {
        fill: #fff;
      }
    </style>
  </defs>
  <g id="Layer_2-2" data-name="Layer 2">
    <g>
      <path class="cls-1" d="M0,.99s6.53,12.73,0,19.5c0,0,11.32-4.55,15.77-1.45l-4.21-3.44-6.82,1.69s.58-11.61-1.26-13.06c0,0,3-1.4,4.4.87l-.68-3.68L0,.99Z"/>
      <path class="cls-1" d="M41.47.99s-6.53,12.73,0,19.5c0,0-11.32-4.55-15.77-1.45l4.21-3.44,6.82,1.69s-.58-11.61,1.26-13.06c0,0-3-1.4-4.4.87l.68-3.68,7.21-.44Z"/>
      <path class="cls-1" d="M16.26,32.25h9.44s-5.18-7.04-1.87-12.86l-7.37-.47s4.97,4.47-.2,13.33Z"/>
      <polygon class="cls-1" points="7.89 37.72 13.26 33.41 28.74 33.41 34.65 37.67 7.89 37.72"/>
      <path class="cls-1" d="M6.38,0c.15,2.91.6,5.29,1.02,6.97.56,2.3,1.91,7.6,5.18,10.4.4.34,1.12.9,1.21.97,2.14,1.65,3.44,1.7,4.69,2.03,1.33.36,2.14.48,3.63.1,3.18-.81,5.31-2.17,5.76-2.56,2.88-2.51,3.81-5.58,5.03-9.63.59-1.96,1.27-4.78,1.55-8.27H6.38ZM20.54,14.7c-.35-4.72-9.9-5.68-9.9-5.68,0,0,9.42-.68,9.77-5.4.66,4.67,10.03,5.24,10.3,5.25h.05s-9.55,1.1-10.22,5.83ZM24.92,3.17s-11.42.48-15.05-.8c-3.63-1.28-1.02-1.09-1.02-1.09,0,0,11.08,2.42,23.85,0,0,0,2.52.82-7.79,1.89Z"/>
    </g>
  </g>
</svg>