<?xml version="1.0" encoding="UTF-8"?>
<svg id="Layer_2" data-name="Layer 2" xmlns="http://www.w3.org/2000/svg" viewBox="0 0 39.47 45.16">
  <defs>
    <style>
      .cls-1 {
        fill: #fff;
      }
    </style>
  </defs>
  <g id="Layer_2-2" data-name="Layer 2">
    <g>
      <path class="cls-1" d="M10.92,45.16C4.44,43.14.1,38.33,0,33.32c-.02-1.09.14-3.18,1.69-5.64.33-.25.84-.59,1.53-.85,1.93-.74,3.52-.2,4.7-.15,1.44.07,3.5-.51,6.15-3.46,2.33-1.77,3.17-4.67,2.2-6.9-.91-2.11-3.09-2.82-3.47-2.93-.42-.23-.92-.57-.93-1.01-.03-1.1,3.05-1.63,6.19-3.35,1.42-.78,3.26-2.02,5.16-4.06.27-.32.57-.76.8-1.31.67-1.59.33-3.08.17-3.66,2.02,2.51,2.1,3.86,1.76,4.64-.26.59-.77.86-1.24,1.94,0,0-.47,1.05-.52,2.26-.08,1.88,1.32,4.13,3.68,5.74-.15.62-.36,1.51-.58,2.58-.72,3.46-.61,4-.45,4.39.48,1.2,1.66,1.73,3.1,2.39.97.44,2.59,1.01,4.77,1.03.78.4,2.05,1.2,3.1,2.65,2.16,2.98,1.62,6.34,1.51,7.01-.89,5.57-6.54,8-6.93,8.16,0,0-1.61.71-.19-3.48,1.42-4.19-2.97-6.58-2.97-6.58,0,0-8.06-2.26-6.06-9.61,0,0-5.55,1.61-6.77,8.19-1.23,6.58-8.19,2.32-8.19,2.32,0,0-1.68,7.35,2.71,11.55Z"/>
      <path class="cls-1" d="M17.24,36.19s-.39,5.87,3.03,1.81l1.03-5.1s7.61,5.07,6.46,8.5c-.19.57-.57.88-1.3,1.5-2.8,2.36-6.82,2.74-9.94,1.68-.81-.27-1.42-.6-1.74-.78-.27-.16-1.25-.77-1.55-1.94-.24-.92.07-1.68.29-2.22.89-2.13,2.95-3.13,3.71-3.45Z"/>
      <polygon class="cls-1" points="6.53 15.35 3.7 18.58 6.53 21.03 8.86 18.45 6.53 15.35"/>
      <polygon class="cls-1" points="15.82 .32 13.76 3.03 15.82 5.1 17.95 2.71 15.82 .32"/>
      <polygon class="cls-1" points="33.79 10.45 30.63 13.65 33.79 17.06 37.11 13.55 33.79 10.45"/>
    </g>
  </g>
</svg>