<?xml version="1.0" encoding="UTF-8"?>
<svg id="Layer_2" data-name="Layer 2" xmlns="http://www.w3.org/2000/svg" viewBox="0 0 53.57 38.89">
  <defs>
    <style>
      .cls-1 {
        fill: #fff;
      }
    </style>
  </defs>
  <g id="Layer_2-2" data-name="Layer 2">
    <g>
      <path class="cls-1" d="M38.16,33.85s2.61,1.55,5.47,1.89,1.69,2.23,1.69,2.23c0,0-1.11,1.5-3.77.68s-3.39-1.79-3.39-1.79c0,0-1.84-1.84,0-3Z"/>
      <path class="cls-1" d="M15.51,33.85s-2.61,1.55-5.47,1.89-1.69,2.23-1.69,2.23c0,0,1.11,1.5,3.77.68s3.39-1.79,3.39-1.79c0,0,1.84-1.84,0-3Z"/>
      <path class="cls-1" d="M5.6,3.47s3.19,1.11,3.19-1.74S2.93.42,2.93.42C2.93.42-1.32,3.37.42,3.47s5.18,0,5.18,0Z"/>
      <path class="cls-1" d="M47.98,3.47s-3.19,1.11-3.19-1.74,5.85-1.31,5.85-1.31c0,0,4.26,2.95,2.52,3.05s-5.18,0-5.18,0Z"/>
      <path class="cls-1" d="M1.97,6.37s3.1-4.21,6.58-.87l6,27.58s-3.92,3.44-6.1.77L1.97,6.37Z"/>
      <path class="cls-1" d="M52.55,6.55s-2.98-4.3-6.55-1.06l-6.77,27.4s3.82,3.54,6.07.95l7.26-27.29Z"/>
      <path class="cls-1" d="M43.48,3.7s-8.37,4.94-15.19.29c-6.82-4.65-19.11,1.65-19.11,1.65,0,0,5.18,26.27,6.63,27.58,1.45,1.31,3.29-1.11,3.29-1.11,0,0,3.24-4.21,7.11-2.71s1.21,3.19,1.21,3.19c0,1.55,10.69-.24,10.69-.24l7.11-27.77-1.74-.87ZM14.84,7.68s1.94-.63,6.1-1.65c4.16-1.02,4.98.63,4.98.63,0,0-1.21,1.16-4.26.63-3.05-.53-9.24,2.37-9.24,2.37-1.02-1.16,2.42-1.98,2.42-1.98ZM12.76,11.31c1.65-.73,4.79-.24,4.79-.24,0,0-.58,1.16-3,1.79-2.42.63-1.79-1.55-1.79-1.55ZM18.61,22.24s-.05,1.21-2.76,1.06-1.31-.68-1.31-.68c0,0,3.64-2.17,4.84-1.74,1.2.43-.77,1.35-.77,1.35ZM25.24,20.83c-.15,0-3.78.04-3.92,0-.77-.2,1.21-.81,2.66-.77,1.45.05,1.4.77,1.26.77ZM27.23,11.55c-3.58-2.56-6.77-1.5-6.77-1.5,0,0-.29-1.5,3.53-1.11s6.73,2.81,6.73,2.81c5.52-.05,4.5,1.23,4.5,1.23,0,0-4.4,1.14-7.98-1.42ZM29.69,25.77c.05.28.19,1.12.82,1.89.57.7,1.26,1,1.65,1.16.38.16,1.64.66,3.12.24,2.04-.58,2.86-2.45,2.97-2.71,0,0-.34,4.98-6,3.63-5.66-1.35-3.87-7.26-3.87-7.26,0,0,1.69-4.06,5.13-3.92,3.44.15,4.98,3.27,4.98,3.27-.68-.52-2.72-1.94-5.19-1.62-.48.06-1.25.17-2.02.72-1.28.93-1.58,2.39-1.65,2.81,0-.6-.05,1.2.05,1.79ZM41.45,11.45c-.72,1.35-2.66,0-2.66,0,0,0,3.38-1.35,2.66,0ZM35.28,10.91s-4.14-.45-5.59-2.03c-1.45-1.58,0-1.48,0-1.48,0,0,2.81,3.79,8.9,1.48,0,0,3.68-1.92,3.48-.76s-6.8,2.79-6.8,2.79Z"/>
    </g>
  </g>
</svg>